HIERARCHY
ROOT root
{
	OFFSET 0.000000 0.000000 0.000000
	CHANNELS 6 Xposition Yposition Zposition Zrotation Yrotation Xrotation
	JOINT lhip
	{
		OFFSET 0.058581 -0.082280 -0.017664
		CHANNELS 3 Zrotation Yrotation Xrotation
		JOINT lknee
		{
			OFFSET 0.043451 -0.386469 0.008037
			CHANNELS 3 Zrotation Yrotation Xrotation
			JOINT lankle
			{
				OFFSET -0.014790 -0.426874 -0.037428
				CHANNELS 3 Zrotation Yrotation Xrotation
				JOINT ltoe
				{
					OFFSET 0.041054 -0.060286 0.122042
					CHANNELS 3 Zrotation Yrotation Xrotation
					End Site
					{
						OFFSET 0.000000 0.000000 0.000000
					}
				}
			}
		}
	}
	JOINT rhip
	{
		OFFSET -0.060310 -0.090513 -0.013543
		CHANNELS 3 Zrotation Yrotation Xrotation
		JOINT rknee
		{
			OFFSET -0.043257 -0.383688 -0.004843
			CHANNELS 3 Zrotation Yrotation Xrotation
			JOINT rankle
			{
				OFFSET 0.019056 -0.420046 -0.034562
				CHANNELS 3 Zrotation Yrotation Xrotation
				JOINT rtoe
				{
					OFFSET -0.034840 -0.062106 0.130323
					CHANNELS 3 Zrotation Yrotation Xrotation
					End Site
					{
						OFFSET 0.000000 0.000000 0.000000
					}
				}
			}
		}
	}
	JOINT lowerback
	{
		OFFSET 0.004439 0.124404 -0.038385
		CHANNELS 3 Zrotation Yrotation Xrotation
		JOINT upperback
		{
			OFFSET 0.004488 0.137956 0.026820
			CHANNELS 3 Zrotation Yrotation Xrotation
			JOINT chest
			{
				OFFSET -0.002265 0.056032 0.002855
				CHANNELS 3 Zrotation Yrotation Xrotation
				JOINT lowerneck
				{
					OFFSET -0.013390 0.211636 -0.033468
					CHANNELS 3 Zrotation Yrotation Xrotation
					JOINT upperneck
					{
						OFFSET 0.010113 0.088937 0.050410
						CHANNELS 3 Zrotation Yrotation Xrotation
						End Site
						{
							OFFSET 0.000000 0.000000 0.000000
						}
					}
				}
				JOINT lclavicle
				{
					OFFSET 0.071702 0.114000 -0.018898
					CHANNELS 3 Zrotation Yrotation Xrotation
					JOINT lshoulder
					{
						OFFSET 0.122921 0.045205 -0.019046
						CHANNELS 3 Zrotation Yrotation Xrotation
						JOINT lelbow
						{
							OFFSET 0.255332 -0.015649 -0.022946
							CHANNELS 3 Zrotation Yrotation Xrotation
							JOINT lwrist
							{
								OFFSET 0.265709 0.012698 -0.007375
								CHANNELS 3 Zrotation Yrotation Xrotation
								End Site
								{
									OFFSET 0.000000 0.000000 0.000000
								}
							}
						}
					}
				}
				JOINT rclavicle
				{
					OFFSET -0.082954 0.112472 -0.023707
					CHANNELS 3 Zrotation Yrotation Xrotation
					JOINT rshoulder
					{
						OFFSET -0.113228 0.046853 -0.008472
						CHANNELS 3 Zrotation Yrotation Xrotation
						JOINT relbow
						{
							OFFSET -0.260127 -0.014369 -0.031269
							CHANNELS 3 Zrotation Yrotation Xrotation
							JOINT rwrist
							{
								OFFSET -0.269108 0.006794 -0.006027
								CHANNELS 3 Zrotation Yrotation Xrotation
								End Site
								{
									OFFSET 0.000000 0.000000 0.000000
								}
							}
						}
					}
				}
			}
		}
	}
}
MOTION
Frames: 10
Frame Time: 0.033333
-0.554325 0.314155 0.983926 -96.360974 -0.288506 87.996285 -5.289678 -5.180470 1.266601 -4.604777 -8.325047 14.319473 9.461517 19.840973 -14.256149 0.000000 -0.000000 0.000000 -1.753135 3.379658 -19.229665 -3.412838 -4.293251 68.925008 2.931689 -16.019399 -4.806686 0.000000 -0.000000 0.000000 -1.813751 -1.044302 1.354845 0.121448 1.665053 3.055536 -3.332938 -0.244093 3.709589 1.053942 -0.797350 4.416952 -0.740485 -0.250960 12.523233 -23.474332 8.481052 2.801916 -55.333650 -1.177236 15.360769 -21.067736 -72.161707 63.170952 17.865351 -13.725724 10.727906 20.960610 -5.965622 -1.195359 64.099610 -10.843200 16.442720 -7.142389 47.382355 25.511897 -16.156921 5.244956 -2.631683 
-0.597738 0.314336 0.993597 -93.069432 1.042712 88.471910 -3.598873 -4.101475 5.115807 -4.438318 -11.141222 11.513006 6.808334 17.758748 -13.583321 0.000000 -0.000000 0.000000 -1.165073 3.954242 -23.557046 -3.142050 -8.261455 61.639585 3.415821 -16.011287 -8.045216 0.000000 -0.000000 0.000000 -1.378228 -3.407404 1.342893 0.805898 0.460839 3.542930 -2.589731 -1.718245 2.799651 0.562174 -0.178974 5.541675 -0.346389 0.006462 11.462314 -23.311878 5.949803 3.344196 -57.461463 -5.139707 17.171604 -17.674050 -73.616614 60.388977 18.074784 -14.187077 9.984620 20.359217 -6.173335 -0.443893 62.876041 -13.494671 14.859764 -9.240816 41.091412 24.261170 -14.821976 4.166232 -4.131743 
-0.640319 0.315260 0.998409 -89.420156 1.790391 89.345383 -1.546857 -2.829126 7.643862 -4.843819 -14.040321 10.161732 3.957344 14.880981 -13.163448 0.000000 -0.000000 0.000000 -1.231867 3.377921 -26.883939 -2.596843 -11.264158 51.478016 4.026191 -16.328315 -9.985437 0.000000 -0.000000 0.000000 -1.597991 -5.188099 1.322955 1.355357 -1.171268 3.774383 -1.798029 -3.229162 2.041571 0.228691 0.336786 6.246844 0.527048 -0.011982 10.120670 -22.855054 3.253480 3.906093 -57.927468 -9.377366 18.715265 -16.717017 -74.810330 60.254667 18.486433 -14.955187 9.436915 19.987688 -6.268036 0.170037 61.585351 -16.054271 13.824431 -10.625335 35.241658 23.942997 -14.278109 2.969149 -5.113231 
-0.683451 0.316534 0.998122 -86.039736 2.081564 90.140890 0.379345 -1.356440 9.521273 -5.379598 -17.146986 10.216793 1.552238 12.061581 -12.964292 0.000000 -0.000000 0.000000 -1.204894 2.009741 -28.433202 -1.609852 -12.568829 38.699661 4.756491 -16.212402 -11.750344 0.000000 -0.000000 0.000000 -1.938195 -6.233394 1.422319 1.594246 -2.902559 3.918865 -1.103039 -4.585281 1.498896 -0.325129 0.556906 6.561657 1.850749 -0.227552 8.734916 -22.174308 0.279104 4.404343 -57.357535 -13.425015 19.543121 -16.631973 -75.694658 60.502383 19.108424 -15.811480 8.855006 19.308190 -6.213891 0.585101 61.004633 -18.989443 12.611804 -11.648453 30.817057 23.837673 -13.025602 1.458832 -6.662903 
-0.728336 0.318187 0.993087 -83.430367 2.051474 90.700602 1.906798 -0.083759 11.274401 -5.906553 -19.511031 11.236076 -0.341363 9.933485 -13.153308 0.000000 -0.000000 0.000000 -0.932921 0.815056 -28.288434 -0.102858 -11.929932 24.417596 5.551265 -15.489026 -13.282211 0.000000 -0.000000 0.000000 -2.167574 -6.601492 1.477846 1.520874 -4.364161 4.058169 -0.625028 -5.698249 1.206572 -1.026183 0.506057 6.697455 3.299236 -0.565816 7.284374 -21.318490 -2.460275 4.728876 -56.500478 -16.928118 19.680727 -15.722662 -75.967169 59.597552 19.471537 -16.703866 8.434000 18.286630 -6.402331 1.009924 61.129674 -22.066137 11.133120 -12.236022 28.262316 23.732696 -11.677314 0.241517 -8.720493 
-0.775223 0.320134 0.984492 -81.649412 1.901040 91.160182 3.200748 0.869970 13.050610 -6.525528 -21.170774 12.778129 -1.667952 8.560905 -13.384844 0.000000 -0.000000 0.000000 -0.581805 -0.094448 -27.501464 1.476564 -10.528231 12.143147 6.289937 -14.110871 -13.929168 0.000000 -0.000000 0.000000 -2.175781 -6.719733 1.246346 1.278984 -5.442933 4.266741 -0.324476 -6.434319 0.994219 -1.839750 0.325150 6.827046 4.527002 -0.671702 5.982384 -20.415504 -4.557928 4.814452 -56.286386 -19.318130 19.508367 -12.209705 -75.599250 55.900161 19.446209 -16.975594 7.729511 17.038354 -6.727926 1.597055 61.694252 -24.841530 9.549008 -12.439450 26.909943 24.107354 -10.334324 -0.237033 -10.358236 
-0.824930 0.322282 0.974030 -80.536380 1.843222 91.476161 4.289286 1.295250 14.705212 -7.334319 -22.741648 15.411818 -2.842886 8.121338 -13.293706 0.000000 -0.000000 0.000000 -0.047337 -0.607752 -27.025881 2.573610 -10.218105 6.281818 6.571248 -13.233365 -14.650693 0.000000 -0.000000 0.000000 -1.841851 -7.009061 0.612343 1.036878 -6.026063 4.689029 -0.275987 -6.840596 0.803276 -2.476177 0.163343 6.834854 5.085425 -0.637887 5.036754 -20.016510 -5.496903 4.856245 -56.822340 -20.407162 19.146146 -6.613866 -74.728258 50.339975 18.727757 -16.320867 7.153545 16.108109 -7.137899 2.019903 61.802256 -26.966291 8.287116 -12.023486 25.841676 25.755001 -9.302645 -0.338941 -11.373900 
-0.877905 0.324525 0.963234 -80.281903 1.950521 91.450237 4.929490 0.929741 16.282153 -8.331805 -23.331192 19.316202 -4.096995 8.316073 -11.664183 0.000000 -0.000000 0.000000 0.680942 0.109596 -27.373782 2.467675 -11.134829 9.317599 5.844716 -13.322692 -15.313284 0.000000 -0.000000 0.000000 -1.286762 -7.635865 -0.205401 0.986140 -5.878266 5.400504 -0.461287 -6.969962 0.424024 -2.743707 0.087223 6.771929 4.605909 -0.241693 4.505740 -20.577225 -5.123261 4.881190 -57.583225 -19.824978 18.661114 -0.176945 -73.571116 44.319173 17.316552 -15.281711 7.783970 15.869152 -7.570714 2.149421 61.305259 -28.006147 7.320608 -11.929456 24.660744 26.689442 -8.013939 -0.160978 -11.905697 
-0.932612 0.327447 0.953922 -80.963807 2.437792 91.479310 5.566220 0.410580 16.546773 -9.813714 -22.054646 25.398553 -5.703003 8.306223 -7.372705 0.000000 -0.000000 0.000000 1.669183 1.479516 -28.340641 2.045145 -11.385816 16.556809 3.097498 -13.538977 -13.094020 0.000000 -0.000000 0.000000 -0.173515 -8.225670 -1.653644 1.072859 -5.189128 6.386388 -0.918394 -6.741027 0.144887 -2.958182 -0.276108 6.311829 3.774090 0.447541 4.434747 -22.281527 -3.836398 4.596543 -58.116344 -17.688021 17.807259 4.982773 -71.831554 39.698644 15.491903 -13.922390 9.879924 16.627675 -7.895320 2.014262 60.039238 -27.927521 6.635681 -11.777203 23.410136 27.405535 -7.458605 -0.022615 -11.763996 
-0.985832 0.331499 0.950370 -82.760575 3.953152 90.582455 7.016400 0.185025 15.488251 -11.475961 -18.224572 34.246061 -7.816935 7.622514 1.175322 0.000000 -0.000000 0.000000 3.597759 3.944577 -28.100672 1.836884 -10.979372 23.741271 -0.629584 -14.408986 -12.104478 0.000000 -0.000000 0.000000 1.639533 -8.555860 -1.300909 1.531649 -3.742824 7.019712 -1.207204 -6.144718 -0.192685 -2.784085 -0.877493 5.016270 2.632361 1.172962 5.190390 -24.724953 -2.037555 3.785399 -58.786446 -14.736548 16.967425 9.532202 -68.340988 35.410239 13.678910 -12.274161 12.515233 18.170107 -7.524116 1.455030 58.628644 -26.867218 6.663304 -11.592717 22.502310 27.618307 -8.009220 -0.192765 -10.748634 
